<svg width="496" height="165" viewBox="0 0 496 165" fill="none" xmlns="http://www.w3.org/2000/svg">
<path d="M36.6989 98.0604C25.7025 98.0604 16.984 95.8752 10.5433 91.5048C4.18109 87.1344 1 81.0796 1 73.3404C1 69.9716 2.09964 67.2401 4.29891 65.146C6.49818 63.0518 10.1898 62.0047 15.3738 62.0047C15.688 68.6514 17.6516 73.7046 21.2647 77.1645C24.9564 80.5333 30.1011 82.2178 36.6989 82.2178C41.8044 82.2178 45.8102 81.2162 48.7164 79.2131C51.6225 77.119 53.0756 74.2509 53.0756 70.6089C53.0756 68.1506 52.5258 66.1475 51.4262 64.5997C50.3265 63.0518 48.4022 61.6405 45.6531 60.3659C42.9825 59.0912 39.0553 57.7709 33.8713 56.4052C26.0167 54.3111 19.8509 51.9438 15.3738 49.3033C10.8967 46.6629 7.63709 43.5217 5.59491 39.8797C3.63127 36.2377 2.64945 31.6852 2.64945 26.2223C2.64945 21.0325 3.98473 16.48 6.65527 12.5648C9.40436 8.55866 13.2138 5.46298 18.0836 3.27778C22.9535 1.09259 28.6087 0 35.0495 0C41.176 0 46.6742 0.956021 51.544 2.86806C56.4138 4.68905 60.2233 7.28397 62.9724 10.6528C65.7215 14.0216 67.096 17.8912 67.096 22.2616C67.096 25.6305 65.9964 28.3164 63.7971 30.3195C61.6764 32.2315 58.1418 33.2786 53.1935 33.4607C52.8007 27.3604 51.1905 22.899 48.3629 20.0764C45.5353 17.2539 41.0975 15.8426 35.0495 15.8426C30.1011 15.8426 26.2916 16.7531 23.6211 18.5741C20.9505 20.3951 19.6153 23.0355 19.6153 26.4954C19.6153 28.8627 20.1258 30.8203 21.1469 32.3681C22.168 33.8249 23.896 35.1451 26.3309 36.3288C28.8444 37.5124 32.4182 38.6961 37.0524 39.8797C45.1426 41.9738 51.544 44.3867 56.2567 47.1181C61.048 49.7586 64.504 52.9453 66.6247 56.6784C68.824 60.4114 69.9236 65.0094 69.9236 70.4724C69.9236 76.0264 68.5491 80.8975 65.8 85.0858C63.1295 89.2741 59.2807 92.5063 54.2538 94.7826C49.3055 96.9678 43.4538 98.0604 36.6989 98.0604Z" fill="black"/>
<path d="M100.117 98.0604C96.2686 98.0604 92.6555 97.1954 89.278 95.4655C85.9791 93.6445 83.3086 91.0496 81.2664 87.6807C79.2242 84.2208 78.2031 80.0781 78.2031 75.2525C78.2031 70.4268 79.3028 66.2841 81.502 62.8242C83.7013 59.2733 86.6075 56.5873 90.2206 54.7663C93.9122 52.9453 97.918 52.0348 102.238 52.0348C105.851 52.0348 109.032 52.6722 111.781 53.9469C114.609 55.2216 117.24 57.0881 119.675 59.5464L120.264 58.727C118.615 56.997 117.319 55.7679 116.376 55.0395V53.264C116.376 49.8041 115.277 47.0726 113.077 45.0695C110.957 42.9754 107.933 41.9283 104.005 41.9283C100.549 41.9283 97.486 42.6567 94.8155 44.1135C92.1449 45.5703 89.9849 47.71 88.3355 50.5325C86.4504 49.9862 84.8402 48.9847 83.5049 47.5279C82.2482 45.98 81.6199 44.2956 81.6199 42.4746C81.6199 39.6521 82.6802 37.1027 84.8009 34.8265C86.9217 32.4592 89.7886 30.6382 93.4017 29.3635C97.0933 27.9977 101.138 27.3149 105.537 27.3149C114.098 27.3149 120.696 29.5911 125.33 34.1436C129.965 38.6961 132.282 44.8874 132.282 52.7177V85.9053C132.282 90.1846 131.064 93.2803 128.629 95.1923C126.273 97.1043 122.503 98.0604 117.319 98.0604V92.734C118.497 91.4593 119.439 90.3212 120.146 89.3196L119.557 88.6367C116.965 91.7324 114.255 94.0997 111.428 95.7386C108.6 97.2865 104.83 98.0604 100.117 98.0604ZM104.594 84.6761C108.365 84.6761 111.31 83.8566 113.431 82.2178C115.551 80.5789 116.612 78.2116 116.612 75.1159C116.612 72.1112 115.512 69.744 113.313 68.014C111.192 66.2841 108.286 65.4191 104.594 65.4191C101.295 65.4191 98.6642 66.2841 96.7006 68.014C94.8155 69.744 93.8729 72.1112 93.8729 75.1159C93.8729 78.2116 94.8155 80.5789 96.7006 82.2178C98.6642 83.8566 101.295 84.6761 104.594 84.6761Z" fill="black"/>
<path d="M144.646 41.5186C144.646 36.9661 145.942 33.4607 148.534 31.0024C151.126 28.544 154.975 27.3149 160.08 27.3149V35.3728C158.902 36.8295 157.92 38.3774 157.135 40.0163L157.96 40.5626C160.316 36.3743 163.301 33.142 166.914 30.8658C170.605 28.4985 174.69 27.3149 179.167 27.3149C183.094 27.3149 186.55 28.3619 189.535 30.4561C192.598 32.5502 194.994 35.4638 196.722 39.1968C198.45 42.8388 199.314 46.936 199.314 51.4885V87.1344C199.314 91.0496 197.979 93.8721 195.308 95.602C192.637 97.2409 188.592 98.0604 183.173 98.0604V54.3566C183.173 51.2609 182.309 48.666 180.581 46.5718C178.931 44.4777 176.575 43.4306 173.512 43.4306C169.741 43.4306 166.678 44.8419 164.322 47.6644C161.965 50.487 160.787 54.0379 160.787 58.3172V87.1344C160.787 91.0496 159.452 93.8721 156.781 95.602C154.189 97.2409 150.144 98.0604 144.646 98.0604V41.5186Z" fill="black"/>
<path d="M227.725 18.5741H199.33C199.33 7.01082 203.847 1.22917 212.879 1.22917H273.32C273.32 12.7925 268.804 18.5741 259.771 18.5741H245.044V83.5835C245.044 88.3181 243.551 91.9145 240.567 94.3729C237.661 96.8312 233.38 98.0604 227.725 98.0604V18.5741Z" fill="black"/>
<path d="M289.661 98.0604C284.791 98.0604 280.275 96.9223 276.112 94.646C272.028 92.3698 268.768 89.2741 266.333 85.359C263.898 81.4438 262.681 77.0734 262.681 72.2478V54.7663C262.681 49.6675 263.898 45.024 266.333 40.8357C268.846 36.5564 272.185 33.2331 276.348 30.8658C280.51 28.4985 284.988 27.3149 289.779 27.3149C294.492 27.3149 298.812 28.453 302.739 30.7292C306.745 32.9144 309.886 36.0556 312.164 40.1529C314.442 44.159 315.581 48.7115 315.581 53.8103V61.1853C315.581 63.3705 314.874 65.237 313.46 66.7849C312.046 68.2416 310.24 68.97 308.041 68.97H278.35V70.8821C278.35 74.5241 279.293 77.5287 281.178 79.896C283.142 82.1722 286.009 83.3103 289.779 83.3103C293.47 83.3103 296.18 82.3998 297.908 80.5789C299.636 78.6668 300.5 76.2995 300.5 73.477C302.071 73.2949 303.249 73.2038 304.035 73.2038C307.255 73.2038 309.729 73.9778 311.457 75.5256C313.185 77.0734 314.049 79.3497 314.049 82.3543C314.049 84.8127 312.989 87.271 310.868 89.7293C308.748 92.1877 305.802 94.1908 302.032 95.7386C298.34 97.2865 294.217 98.0604 289.661 98.0604ZM300.972 55.7223V53.8103C300.972 50.1683 299.911 47.3002 297.79 45.2061C295.748 43.0209 293.038 41.9283 289.661 41.9283C286.284 41.9283 283.534 43.0209 281.414 45.2061C279.372 47.3002 278.35 50.1683 278.35 53.8103V55.7223H300.972Z" fill="black"/>
<path d="M358.135 43.4306C353.422 43.4306 349.612 44.8419 346.706 47.6644C343.8 50.487 342.347 54.0379 342.347 58.3172V87.1344C342.347 91.0496 341.012 93.8721 338.341 95.602C335.749 97.2409 331.704 98.0604 326.206 98.0604V41.5186C326.206 36.9661 327.502 33.4607 330.094 31.0024C332.686 28.544 336.535 27.3149 341.64 27.3149V35.3728C340.462 36.8295 339.48 38.3774 338.695 40.0163L339.519 40.5626C344.468 31.7308 350.633 27.3149 358.017 27.3149C361.551 27.3149 364.222 28.4075 366.028 30.5927C367.835 32.7778 368.738 35.5549 368.738 38.9237C368.738 41.4731 368.149 43.7038 366.971 45.6158C364.772 44.159 361.826 43.4306 358.135 43.4306Z" fill="black"/>
<path d="M392.477 98.0604C388.628 98.0604 385.015 97.1954 381.637 95.4655C378.339 93.6445 375.668 91.0496 373.626 87.6807C371.584 84.2208 370.562 80.0781 370.562 75.2525C370.562 70.4268 371.662 66.2841 373.861 62.8242C376.061 59.2733 378.967 56.5873 382.58 54.7663C386.272 52.9453 390.277 52.0348 394.597 52.0348C398.211 52.0348 401.392 52.6722 404.141 53.9469C406.968 55.2216 409.6 57.0881 412.035 59.5464L412.624 58.727C410.974 56.997 409.678 55.7679 408.736 55.0395V53.264C408.736 49.8041 407.636 47.0726 405.437 45.0695C403.316 42.9754 400.292 41.9283 396.365 41.9283C392.909 41.9283 389.845 42.6567 387.175 44.1135C384.504 45.5703 382.344 47.71 380.695 50.5325C378.81 49.9862 377.2 48.9847 375.864 47.5279C374.608 45.98 373.979 44.2956 373.979 42.4746C373.979 39.6521 375.04 37.1027 377.16 34.8265C379.281 32.4592 382.148 30.6382 385.761 29.3635C389.453 27.9977 393.498 27.3149 397.896 27.3149C406.458 27.3149 413.056 29.5911 417.69 34.1436C422.324 38.6961 424.641 44.8874 424.641 52.7177V85.9053C424.641 90.1846 423.424 93.2803 420.989 95.1923C418.632 97.1043 414.862 98.0604 409.678 98.0604V92.734C410.856 91.4593 411.799 90.3212 412.506 89.3196L411.917 88.6367C409.325 91.7324 406.615 94.0997 403.787 95.7386C400.96 97.2865 397.189 98.0604 392.477 98.0604ZM396.954 84.6761C400.724 84.6761 403.669 83.8566 405.79 82.2178C407.911 80.5789 408.971 78.2116 408.971 75.1159C408.971 72.1112 407.872 69.744 405.672 68.014C403.552 66.2841 400.645 65.4191 396.954 65.4191C393.655 65.4191 391.024 66.2841 389.06 68.014C387.175 69.744 386.232 72.1112 386.232 75.1159C386.232 78.2116 387.175 80.5789 389.06 82.2178C391.024 83.8566 393.655 84.6761 396.954 84.6761Z" fill="black"/>
<path d="M460.139 98.0604C452.128 98.0604 445.805 96.5125 441.171 93.4168C436.536 90.2301 434.219 85.9963 434.219 80.7154C434.219 78.3481 435.083 76.3451 436.811 74.7062C438.618 73.0673 441.485 72.2478 445.412 72.2478C446.04 75.8898 447.611 78.7579 450.125 80.852C452.638 82.8551 455.584 83.8566 458.961 83.8566C462.888 83.8566 465.912 83.3103 468.033 82.2178C470.232 81.1252 471.332 79.5318 471.332 77.4377C471.332 75.6167 470.468 74.0233 468.74 72.6575C467.012 71.2918 463.556 69.8805 458.372 68.4237C452.324 66.7848 447.611 65.146 444.234 63.5071C440.935 61.7771 438.5 59.6375 436.929 57.0881C435.358 54.5387 434.573 51.1699 434.573 46.9816C434.573 41.0634 436.693 36.3288 440.935 32.7778C445.255 29.1359 451.264 27.3149 458.961 27.3149C466.501 27.3149 472.628 28.8172 477.341 31.8218C482.053 34.8265 484.41 38.8326 484.41 43.8404C484.41 46.3898 483.585 48.2563 481.936 49.4399C480.286 50.5325 477.537 51.1243 473.688 51.2154C472.667 47.7555 471.096 45.2061 468.976 43.5672C466.934 41.8373 463.988 40.9723 460.139 40.9723C457.39 40.9723 454.955 41.5186 452.835 42.6112C450.714 43.7038 449.654 45.024 449.654 46.5718C449.654 48.3018 450.517 49.6675 452.245 50.6691C454.052 51.6706 457.037 52.6722 461.2 53.6737C470.232 55.95 476.712 58.9546 480.64 62.6876C484.646 66.4207 486.648 71.4739 486.648 77.8474C486.648 81.7625 485.588 85.2679 483.467 88.3636C481.347 91.4593 478.283 93.8721 474.277 95.602C470.272 97.2409 465.559 98.0604 460.139 98.0604Z" fill="black"/>
<path d="M0.888 148.376C0.888 147.016 1.16 145.824 1.704 144.8C2.264 143.76 3.032 142.96 4.008 142.4C4.984 141.84 6.104 141.56 7.368 141.56C8.968 141.56 10.288 141.944 11.328 142.712C12.384 143.464 13.096 144.544 13.464 145.952H10.512C10.272 145.296 9.888 144.784 9.36 144.416C8.832 144.048 8.168 143.864 7.368 143.864C6.248 143.864 5.352 144.264 4.68 145.064C4.024 145.848 3.696 146.952 3.696 148.376C3.696 149.8 4.024 150.912 4.68 151.712C5.352 152.512 6.248 152.912 7.368 152.912C8.952 152.912 10 152.216 10.512 150.824H13.464C13.08 152.168 12.36 153.24 11.304 154.04C10.248 154.824 8.936 155.216 7.368 155.216C6.104 155.216 4.984 154.936 4.008 154.376C3.032 153.8 2.264 153 1.704 151.976C1.16 150.936 0.888 149.736 0.888 148.376ZM21.9266 155.216C20.6786 155.216 19.5506 154.936 18.5426 154.376C17.5346 153.8 16.7426 153 16.1666 151.976C15.5906 150.936 15.3026 149.736 15.3026 148.376C15.3026 147.032 15.5986 145.84 16.1906 144.8C16.7826 143.76 17.5906 142.96 18.6146 142.4C19.6386 141.84 20.7826 141.56 22.0466 141.56C23.3106 141.56 24.4546 141.84 25.4786 142.4C26.5026 142.96 27.3106 143.76 27.9026 144.8C28.4946 145.84 28.7906 147.032 28.7906 148.376C28.7906 149.72 28.4866 150.912 27.8786 151.952C27.2706 152.992 26.4386 153.8 25.3826 154.376C24.3426 154.936 23.1906 155.216 21.9266 155.216ZM21.9266 152.84C22.6306 152.84 23.2866 152.672 23.8946 152.336C24.5186 152 25.0226 151.496 25.4066 150.824C25.7906 150.152 25.9826 149.336 25.9826 148.376C25.9826 147.416 25.7986 146.608 25.4306 145.952C25.0626 145.28 24.5746 144.776 23.9666 144.44C23.3586 144.104 22.7026 143.936 21.9986 143.936C21.2946 143.936 20.6386 144.104 20.0306 144.44C19.4386 144.776 18.9666 145.28 18.6146 145.952C18.2626 146.608 18.0866 147.416 18.0866 148.376C18.0866 149.8 18.4466 150.904 19.1666 151.688C19.9026 152.456 20.8226 152.84 21.9266 152.84ZM33.9193 152.768H39.9193V155H30.7513V152.768L36.7753 144.008H30.7513V141.776H39.9193V144.008L33.9193 152.768ZM54.6962 141.776L46.5842 161.216H43.7522L46.4402 154.784L41.2322 141.776H44.2802L48.0002 151.856L51.8642 141.776H54.6962ZM75.8833 155L73.8193 152.936C73.0193 153.736 72.1473 154.336 71.2033 154.736C70.2593 155.12 69.2033 155.312 68.0353 155.312C66.8513 155.312 65.8033 155.104 64.8913 154.688C63.9793 154.272 63.2753 153.68 62.7793 152.912C62.2833 152.128 62.0353 151.224 62.0353 150.2C62.0353 149.048 62.3633 148.024 63.0193 147.128C63.6753 146.216 64.6513 145.496 65.9473 144.968C65.4833 144.408 65.1553 143.888 64.9633 143.408C64.7713 142.912 64.6753 142.368 64.6753 141.776C64.6753 141.04 64.8593 140.384 65.2273 139.808C65.6113 139.232 66.1553 138.776 66.8593 138.44C67.5633 138.104 68.3793 137.936 69.3073 137.936C70.2513 137.936 71.0513 138.12 71.7073 138.488C72.3793 138.84 72.8753 139.328 73.1953 139.952C73.5313 140.576 73.6673 141.272 73.6033 142.04H70.8673C70.8833 141.448 70.7393 140.992 70.4353 140.672C70.1313 140.336 69.7153 140.168 69.1873 140.168C68.6593 140.168 68.2273 140.328 67.8913 140.648C67.5713 140.952 67.4113 141.328 67.4113 141.776C67.4113 142.208 67.5313 142.64 67.7713 143.072C68.0273 143.488 68.4673 144.032 69.0913 144.704L73.5073 149.096L75.2113 146.288H78.1633L76.0033 149.984L75.4033 150.968L79.4593 155H75.8833ZM68.0353 152.984C69.5393 152.984 70.8673 152.368 72.0193 151.136L67.6033 146.696C65.7153 147.448 64.7713 148.584 64.7713 150.104C64.7713 150.92 65.0753 151.608 65.6833 152.168C66.2913 152.712 67.0753 152.984 68.0353 152.984ZM86.5755 148.328C86.5755 147 86.8475 145.824 87.3915 144.8C87.9515 143.776 88.7035 142.984 89.6475 142.424C90.6075 141.848 91.6635 141.56 92.8155 141.56C93.8555 141.56 94.7595 141.768 95.5275 142.184C96.3115 142.584 96.9355 143.088 97.3995 143.696V141.776H100.16V155H97.3995V153.032C96.9355 153.656 96.3035 154.176 95.5035 154.592C94.7035 155.008 93.7915 155.216 92.7675 155.216C91.6315 155.216 90.5915 154.928 89.6475 154.352C88.7035 153.76 87.9515 152.944 87.3915 151.904C86.8475 150.848 86.5755 149.656 86.5755 148.328ZM97.3995 148.376C97.3995 147.464 97.2075 146.672 96.8235 146C96.4555 145.328 95.9675 144.816 95.3595 144.464C94.7515 144.112 94.0955 143.936 93.3915 143.936C92.6875 143.936 92.0315 144.112 91.4235 144.464C90.8155 144.8 90.3195 145.304 89.9355 145.976C89.5675 146.632 89.3835 147.416 89.3835 148.328C89.3835 149.24 89.5675 150.04 89.9355 150.728C90.3195 151.416 90.8155 151.944 91.4235 152.312C92.0475 152.664 92.7035 152.84 93.3915 152.84C94.0955 152.84 94.7515 152.664 95.3595 152.312C95.9675 151.96 96.4555 151.448 96.8235 150.776C97.2075 150.088 97.3995 149.288 97.3995 148.376ZM115.729 141.776V155H112.993V153.44C112.561 153.984 111.993 154.416 111.289 154.736C110.601 155.04 109.865 155.192 109.081 155.192C108.041 155.192 107.105 154.976 106.273 154.544C105.457 154.112 104.809 153.472 104.329 152.624C103.865 151.776 103.633 150.752 103.633 149.552V141.776H106.345V149.144C106.345 150.328 106.641 151.24 107.233 151.88C107.825 152.504 108.633 152.816 109.657 152.816C110.681 152.816 111.489 152.504 112.081 151.88C112.689 151.24 112.993 150.328 112.993 149.144V141.776H115.729ZM122.531 144.008V151.328C122.531 151.824 122.643 152.184 122.867 152.408C123.107 152.616 123.507 152.72 124.067 152.72H125.747V155H123.587C122.355 155 121.411 154.712 120.755 154.136C120.099 153.56 119.771 152.624 119.771 151.328V144.008H118.211V141.776H119.771V138.488H122.531V141.776H125.747V144.008H122.531ZM135.109 141.56C136.117 141.56 137.013 141.776 137.797 142.208C138.597 142.64 139.221 143.28 139.669 144.128C140.133 144.976 140.365 146 140.365 147.2V155H137.653V147.608C137.653 146.424 137.357 145.52 136.765 144.896C136.173 144.256 135.365 143.936 134.341 143.936C133.317 143.936 132.501 144.256 131.893 144.896C131.301 145.52 131.005 146.424 131.005 147.608V155H128.269V137.24H131.005V143.312C131.469 142.752 132.053 142.32 132.757 142.016C133.477 141.712 134.261 141.56 135.109 141.56ZM155.975 148.064C155.975 148.56 155.943 149.008 155.879 149.408H145.775C145.855 150.464 146.247 151.312 146.951 151.952C147.655 152.592 148.519 152.912 149.543 152.912C151.015 152.912 152.055 152.296 152.663 151.064H155.615C155.215 152.28 154.487 153.28 153.431 154.064C152.391 154.832 151.095 155.216 149.543 155.216C148.279 155.216 147.143 154.936 146.135 154.376C145.143 153.8 144.359 153 143.783 151.976C143.223 150.936 142.943 149.736 142.943 148.376C142.943 147.016 143.215 145.824 143.759 144.8C144.319 143.76 145.095 142.96 146.087 142.4C147.095 141.84 148.247 141.56 149.543 141.56C150.791 141.56 151.903 141.832 152.879 142.376C153.855 142.92 154.615 143.688 155.159 144.68C155.703 145.656 155.975 146.784 155.975 148.064ZM153.119 147.2C153.103 146.192 152.743 145.384 152.039 144.776C151.335 144.168 150.463 143.864 149.423 143.864C148.479 143.864 147.671 144.168 146.999 144.776C146.327 145.368 145.927 146.176 145.799 147.2H153.119ZM165.339 141.56C166.379 141.56 167.307 141.776 168.123 142.208C168.955 142.64 169.603 143.28 170.067 144.128C170.531 144.976 170.763 146 170.763 147.2V155H168.051V147.608C168.051 146.424 167.755 145.52 167.163 144.896C166.571 144.256 165.763 143.936 164.739 143.936C163.715 143.936 162.899 144.256 162.291 144.896C161.699 145.52 161.403 146.424 161.403 147.608V155H158.667V141.776H161.403V143.288C161.851 142.744 162.419 142.32 163.107 142.016C163.811 141.712 164.555 141.56 165.339 141.56ZM177.445 144.008V151.328C177.445 151.824 177.557 152.184 177.781 152.408C178.021 152.616 178.421 152.72 178.981 152.72H180.661V155H178.501C177.269 155 176.325 154.712 175.669 154.136C175.013 153.56 174.685 152.624 174.685 151.328V144.008H173.125V141.776H174.685V138.488H177.445V141.776H180.661V144.008H177.445ZM184.575 140.024C184.079 140.024 183.663 139.856 183.327 139.52C182.991 139.184 182.823 138.768 182.823 138.272C182.823 137.776 182.991 137.36 183.327 137.024C183.663 136.688 184.079 136.52 184.575 136.52C185.055 136.52 185.463 136.688 185.799 137.024C186.135 137.36 186.303 137.776 186.303 138.272C186.303 138.768 186.135 139.184 185.799 139.52C185.463 139.856 185.055 140.024 184.575 140.024ZM185.919 141.776V155H183.183V141.776H185.919ZM188.599 148.376C188.599 147.016 188.871 145.824 189.415 144.8C189.975 143.76 190.743 142.96 191.719 142.4C192.695 141.84 193.815 141.56 195.079 141.56C196.679 141.56 197.999 141.944 199.039 142.712C200.095 143.464 200.807 144.544 201.175 145.952H198.223C197.983 145.296 197.599 144.784 197.071 144.416C196.543 144.048 195.879 143.864 195.079 143.864C193.959 143.864 193.063 144.264 192.391 145.064C191.735 145.848 191.407 146.952 191.407 148.376C191.407 149.8 191.735 150.912 192.391 151.712C193.063 152.512 193.959 152.912 195.079 152.912C196.663 152.912 197.711 152.216 198.223 150.824H201.175C200.791 152.168 200.071 153.24 199.015 154.04C197.959 154.824 196.647 155.216 195.079 155.216C193.815 155.216 192.695 154.936 191.719 154.376C190.743 153.8 189.975 153 189.415 151.976C188.871 150.936 188.599 149.736 188.599 148.376ZM227.896 141.776L223.792 155H220.912L218.248 145.232L215.584 155H212.704L208.576 141.776H211.36L214.12 152.408L216.928 141.776H219.784L222.472 152.36L225.208 141.776H227.896ZM235.677 155.216C234.429 155.216 233.301 154.936 232.293 154.376C231.285 153.8 230.493 153 229.917 151.976C229.341 150.936 229.053 149.736 229.053 148.376C229.053 147.032 229.349 145.84 229.941 144.8C230.533 143.76 231.341 142.96 232.365 142.4C233.389 141.84 234.533 141.56 235.797 141.56C237.061 141.56 238.205 141.84 239.229 142.4C240.253 142.96 241.061 143.76 241.653 144.8C242.245 145.84 242.541 147.032 242.541 148.376C242.541 149.72 242.237 150.912 241.629 151.952C241.021 152.992 240.189 153.8 239.133 154.376C238.093 154.936 236.941 155.216 235.677 155.216ZM235.677 152.84C236.381 152.84 237.037 152.672 237.645 152.336C238.269 152 238.773 151.496 239.157 150.824C239.541 150.152 239.733 149.336 239.733 148.376C239.733 147.416 239.549 146.608 239.181 145.952C238.813 145.28 238.325 144.776 237.717 144.44C237.109 144.104 236.453 143.936 235.749 143.936C235.045 143.936 234.389 144.104 233.781 144.44C233.189 144.776 232.717 145.28 232.365 145.952C232.013 146.608 231.837 147.416 231.837 148.376C231.837 149.8 232.197 150.904 232.917 151.688C233.653 152.456 234.573 152.84 235.677 152.84ZM247.981 143.696C248.381 143.024 248.909 142.504 249.565 142.136C250.237 141.752 251.029 141.56 251.941 141.56V144.392H251.245C250.173 144.392 249.357 144.664 248.797 145.208C248.253 145.752 247.981 146.696 247.981 148.04V155H245.245V141.776H247.981V143.696ZM259.688 148.4L265.784 155H262.088L257.192 149.312V155H254.456V137.24H257.192V147.56L261.992 141.776H265.784L259.688 148.4ZM272.545 155.216C271.505 155.216 270.569 155.032 269.737 154.664C268.921 154.28 268.273 153.768 267.793 153.128C267.313 152.472 267.057 151.744 267.025 150.944H269.857C269.905 151.504 270.169 151.976 270.649 152.36C271.145 152.728 271.761 152.912 272.497 152.912C273.265 152.912 273.857 152.768 274.273 152.48C274.705 152.176 274.921 151.792 274.921 151.328C274.921 150.832 274.681 150.464 274.201 150.224C273.737 149.984 272.993 149.72 271.969 149.432C270.977 149.16 270.169 148.896 269.545 148.64C268.921 148.384 268.377 147.992 267.913 147.464C267.465 146.936 267.241 146.24 267.241 145.376C267.241 144.672 267.449 144.032 267.865 143.456C268.281 142.864 268.873 142.4 269.641 142.064C270.425 141.728 271.321 141.56 272.329 141.56C273.833 141.56 275.041 141.944 275.953 142.712C276.881 143.464 277.377 144.496 277.441 145.808H274.705C274.657 145.216 274.417 144.744 273.985 144.392C273.553 144.04 272.969 143.864 272.233 143.864C271.513 143.864 270.961 144 270.577 144.272C270.193 144.544 270.001 144.904 270.001 145.352C270.001 145.704 270.129 146 270.385 146.24C270.641 146.48 270.953 146.672 271.321 146.816C271.689 146.944 272.233 147.112 272.953 147.32C273.913 147.576 274.697 147.84 275.305 148.112C275.929 148.368 276.465 148.752 276.913 149.264C277.361 149.776 277.593 150.456 277.609 151.304C277.609 152.056 277.401 152.728 276.985 153.32C276.569 153.912 275.977 154.376 275.209 154.712C274.457 155.048 273.569 155.216 272.545 155.216ZM283.302 143.72C283.766 143.112 284.398 142.6 285.198 142.184C285.998 141.768 286.902 141.56 287.91 141.56C289.062 141.56 290.11 141.848 291.054 142.424C292.014 142.984 292.766 143.776 293.31 144.8C293.854 145.824 294.126 147 294.126 148.328C294.126 149.656 293.854 150.848 293.31 151.904C292.766 152.944 292.014 153.76 291.054 154.352C290.11 154.928 289.062 155.216 287.91 155.216C286.902 155.216 286.006 155.016 285.222 154.616C284.438 154.2 283.798 153.688 283.302 153.08V161.288H280.566V141.776H283.302V143.72ZM291.342 148.328C291.342 147.416 291.15 146.632 290.766 145.976C290.398 145.304 289.902 144.8 289.278 144.464C288.67 144.112 288.014 143.936 287.31 143.936C286.622 143.936 285.966 144.112 285.342 144.464C284.734 144.816 284.238 145.328 283.854 146C283.486 146.672 283.302 147.464 283.302 148.376C283.302 149.288 283.486 150.088 283.854 150.776C284.238 151.448 284.734 151.96 285.342 152.312C285.966 152.664 286.622 152.84 287.31 152.84C288.014 152.84 288.67 152.664 289.278 152.312C289.902 151.944 290.398 151.416 290.766 150.728C291.15 150.04 291.342 149.24 291.342 148.328ZM295.919 148.328C295.919 147 296.191 145.824 296.735 144.8C297.295 143.776 298.047 142.984 298.991 142.424C299.951 141.848 301.007 141.56 302.159 141.56C303.199 141.56 304.103 141.768 304.871 142.184C305.655 142.584 306.279 143.088 306.743 143.696V141.776H309.503V155H306.743V153.032C306.279 153.656 305.647 154.176 304.847 154.592C304.047 155.008 303.135 155.216 302.111 155.216C300.975 155.216 299.935 154.928 298.991 154.352C298.047 153.76 297.295 152.944 296.735 151.904C296.191 150.848 295.919 149.656 295.919 148.328ZM306.743 148.376C306.743 147.464 306.551 146.672 306.167 146C305.799 145.328 305.311 144.816 304.703 144.464C304.095 144.112 303.439 143.936 302.735 143.936C302.031 143.936 301.375 144.112 300.767 144.464C300.159 144.8 299.663 145.304 299.279 145.976C298.911 146.632 298.727 147.416 298.727 148.328C298.727 149.24 298.911 150.04 299.279 150.728C299.663 151.416 300.159 151.944 300.767 152.312C301.391 152.664 302.047 152.84 302.735 152.84C303.439 152.84 304.095 152.664 304.703 152.312C305.311 151.96 305.799 151.448 306.167 150.776C306.551 150.088 306.743 149.288 306.743 148.376ZM312.185 148.376C312.185 147.016 312.457 145.824 313.001 144.8C313.561 143.76 314.329 142.96 315.305 142.4C316.281 141.84 317.401 141.56 318.665 141.56C320.265 141.56 321.585 141.944 322.625 142.712C323.681 143.464 324.393 144.544 324.761 145.952H321.809C321.569 145.296 321.185 144.784 320.657 144.416C320.129 144.048 319.465 143.864 318.665 143.864C317.545 143.864 316.649 144.264 315.977 145.064C315.321 145.848 314.993 146.952 314.993 148.376C314.993 149.8 315.321 150.912 315.977 151.712C316.649 152.512 317.545 152.912 318.665 152.912C320.249 152.912 321.297 152.216 321.809 150.824H324.761C324.377 152.168 323.657 153.24 322.601 154.04C321.545 154.824 320.233 155.216 318.665 155.216C317.401 155.216 316.281 154.936 315.305 154.376C314.329 153.8 313.561 153 313.001 151.976C312.457 150.936 312.185 149.736 312.185 148.376ZM339.608 148.064C339.608 148.56 339.576 149.008 339.512 149.408H329.408C329.488 150.464 329.88 151.312 330.584 151.952C331.288 152.592 332.152 152.912 333.176 152.912C334.648 152.912 335.688 152.296 336.296 151.064H339.247C338.848 152.28 338.12 153.28 337.064 154.064C336.024 154.832 334.728 155.216 333.176 155.216C331.912 155.216 330.776 154.936 329.768 154.376C328.776 153.8 327.992 153 327.416 151.976C326.856 150.936 326.576 149.736 326.576 148.376C326.576 147.016 326.848 145.824 327.392 144.8C327.952 143.76 328.728 142.96 329.72 142.4C330.728 141.84 331.88 141.56 333.176 141.56C334.424 141.56 335.536 141.832 336.512 142.376C337.488 142.92 338.248 143.688 338.792 144.68C339.336 145.656 339.608 146.784 339.608 148.064ZM336.752 147.2C336.736 146.192 336.376 145.384 335.672 144.776C334.968 144.168 334.096 143.864 333.056 143.864C332.112 143.864 331.304 144.168 330.632 144.776C329.96 145.368 329.56 146.176 329.432 147.2H336.752ZM354.27 155.216C353.022 155.216 351.894 154.936 350.886 154.376C349.878 153.8 349.086 153 348.51 151.976C347.934 150.936 347.646 149.736 347.646 148.376C347.646 147.032 347.942 145.84 348.534 144.8C349.126 143.76 349.934 142.96 350.958 142.4C351.982 141.84 353.126 141.56 354.39 141.56C355.654 141.56 356.798 141.84 357.822 142.4C358.846 142.96 359.654 143.76 360.246 144.8C360.838 145.84 361.134 147.032 361.134 148.376C361.134 149.72 360.83 150.912 360.222 151.952C359.614 152.992 358.782 153.8 357.726 154.376C356.686 154.936 355.534 155.216 354.27 155.216ZM354.27 152.84C354.974 152.84 355.63 152.672 356.238 152.336C356.862 152 357.366 151.496 357.75 150.824C358.134 150.152 358.326 149.336 358.326 148.376C358.326 147.416 358.142 146.608 357.774 145.952C357.406 145.28 356.918 144.776 356.31 144.44C355.702 144.104 355.046 143.936 354.342 143.936C353.638 143.936 352.982 144.104 352.374 144.44C351.782 144.776 351.31 145.28 350.958 145.952C350.606 146.608 350.43 147.416 350.43 148.376C350.43 149.8 350.79 150.904 351.51 151.688C352.246 152.456 353.166 152.84 354.27 152.84ZM370.511 141.56C371.551 141.56 372.479 141.776 373.295 142.208C374.127 142.64 374.775 143.28 375.239 144.128C375.703 144.976 375.935 146 375.935 147.2V155H373.223V147.608C373.223 146.424 372.927 145.52 372.335 144.896C371.743 144.256 370.935 143.936 369.911 143.936C368.887 143.936 368.071 144.256 367.463 144.896C366.871 145.52 366.575 146.424 366.575 147.608V155H363.839V141.776H366.575V143.288C367.023 142.744 367.591 142.32 368.279 142.016C368.983 141.712 369.727 141.56 370.511 141.56ZM388.395 143.744C388.859 143.104 389.491 142.584 390.291 142.184C391.107 141.768 392.011 141.56 393.003 141.56C394.171 141.56 395.227 141.84 396.171 142.4C397.115 142.96 397.859 143.76 398.403 144.8C398.947 145.824 399.219 147 399.219 148.328C399.219 149.656 398.947 150.848 398.403 151.904C397.859 152.944 397.107 153.76 396.147 154.352C395.203 154.928 394.155 155.216 393.003 155.216C391.979 155.216 391.067 155.016 390.267 154.616C389.483 154.216 388.859 153.704 388.395 153.08V155H385.659V137.24H388.395V143.744ZM396.435 148.328C396.435 147.416 396.243 146.632 395.859 145.976C395.491 145.304 394.995 144.8 394.371 144.464C393.763 144.112 393.107 143.936 392.403 143.936C391.715 143.936 391.059 144.112 390.435 144.464C389.827 144.816 389.331 145.328 388.947 146C388.579 146.672 388.395 147.464 388.395 148.376C388.395 149.288 388.579 150.088 388.947 150.776C389.331 151.448 389.827 151.96 390.435 152.312C391.059 152.664 391.715 152.84 392.403 152.84C393.107 152.84 393.763 152.664 394.371 152.312C394.995 151.944 395.491 151.416 395.859 150.728C396.243 150.04 396.435 149.24 396.435 148.328ZM401.013 148.328C401.013 147 401.285 145.824 401.829 144.8C402.389 143.776 403.141 142.984 404.085 142.424C405.045 141.848 406.101 141.56 407.253 141.56C408.293 141.56 409.197 141.768 409.965 142.184C410.749 142.584 411.373 143.088 411.837 143.696V141.776H414.597V155H411.837V153.032C411.373 153.656 410.741 154.176 409.941 154.592C409.141 155.008 408.229 155.216 407.205 155.216C406.069 155.216 405.029 154.928 404.085 154.352C403.141 153.76 402.389 152.944 401.829 151.904C401.285 150.848 401.013 149.656 401.013 148.328ZM411.837 148.376C411.837 147.464 411.645 146.672 411.261 146C410.893 145.328 410.405 144.816 409.797 144.464C409.189 144.112 408.533 143.936 407.829 143.936C407.125 143.936 406.469 144.112 405.861 144.464C405.253 144.8 404.757 145.304 404.373 145.976C404.005 146.632 403.821 147.416 403.821 148.328C403.821 149.24 404.005 150.04 404.373 150.728C404.757 151.416 405.253 151.944 405.861 152.312C406.485 152.664 407.141 152.84 407.829 152.84C408.533 152.84 409.189 152.664 409.797 152.312C410.405 151.96 410.893 151.448 411.261 150.776C411.645 150.088 411.837 149.288 411.837 148.376ZM424.863 141.56C425.903 141.56 426.831 141.776 427.647 142.208C428.479 142.64 429.127 143.28 429.591 144.128C430.055 144.976 430.287 146 430.287 147.2V155H427.575V147.608C427.575 146.424 427.279 145.52 426.687 144.896C426.095 144.256 425.287 143.936 424.263 143.936C423.239 143.936 422.423 144.256 421.815 144.896C421.223 145.52 420.927 146.424 420.927 147.608V155H418.191V141.776H420.927V143.288C421.375 142.744 421.943 142.32 422.631 142.016C423.335 141.712 424.079 141.56 424.863 141.56ZM432.865 148.328C432.865 147 433.137 145.824 433.681 144.8C434.241 143.776 434.993 142.984 435.937 142.424C436.897 141.848 437.961 141.56 439.129 141.56C439.993 141.56 440.841 141.752 441.673 142.136C442.521 142.504 443.193 143 443.689 143.624V137.24H446.449V155H443.689V153.008C443.241 153.648 442.617 154.176 441.817 154.592C441.033 155.008 440.129 155.216 439.105 155.216C437.953 155.216 436.897 154.928 435.937 154.352C434.993 153.76 434.241 152.944 433.681 151.904C433.137 150.848 432.865 149.656 432.865 148.328ZM443.689 148.376C443.689 147.464 443.497 146.672 443.113 146C442.745 145.328 442.257 144.816 441.649 144.464C441.041 144.112 440.385 143.936 439.681 143.936C438.977 143.936 438.321 144.112 437.713 144.464C437.105 144.8 436.609 145.304 436.225 145.976C435.857 146.632 435.673 147.416 435.673 148.328C435.673 149.24 435.857 150.04 436.225 150.728C436.609 151.416 437.105 151.944 437.713 152.312C438.337 152.664 438.993 152.84 439.681 152.84C440.385 152.84 441.041 152.664 441.649 152.312C442.257 151.96 442.745 151.448 443.113 150.776C443.497 150.088 443.689 149.288 443.689 148.376ZM462.018 141.776V155H459.282V153.44C458.85 153.984 458.282 154.416 457.578 154.736C456.89 155.04 456.154 155.192 455.37 155.192C454.33 155.192 453.394 154.976 452.562 154.544C451.746 154.112 451.098 153.472 450.618 152.624C450.154 151.776 449.922 150.752 449.922 149.552V141.776H452.634V149.144C452.634 150.328 452.93 151.24 453.522 151.88C454.114 152.504 454.922 152.816 455.946 152.816C456.97 152.816 457.778 152.504 458.37 151.88C458.978 151.24 459.282 150.328 459.282 149.144V141.776H462.018ZM472.3 141.56C473.34 141.56 474.268 141.776 475.084 142.208C475.916 142.64 476.564 143.28 477.028 144.128C477.492 144.976 477.724 146 477.724 147.2V155H475.012V147.608C475.012 146.424 474.716 145.52 474.124 144.896C473.532 144.256 472.724 143.936 471.7 143.936C470.676 143.936 469.86 144.256 469.252 144.896C468.66 145.52 468.364 146.424 468.364 147.608V155H465.628V141.776H468.364V143.288C468.812 142.744 469.38 142.32 470.068 142.016C470.772 141.712 471.516 141.56 472.3 141.56ZM486.542 141.56C487.566 141.56 488.47 141.768 489.254 142.184C490.054 142.584 490.678 143.088 491.126 143.696V141.776H493.886V155.216C493.886 156.432 493.63 157.512 493.118 158.456C492.606 159.416 491.862 160.168 490.886 160.712C489.926 161.256 488.774 161.528 487.43 161.528C485.638 161.528 484.15 161.104 482.966 160.256C481.782 159.424 481.11 158.288 480.95 156.848H483.662C483.87 157.536 484.31 158.088 484.982 158.504C485.67 158.936 486.486 159.152 487.43 159.152C488.534 159.152 489.422 158.816 490.094 158.144C490.782 157.472 491.126 156.496 491.126 155.216V153.008C490.662 153.632 490.03 154.16 489.23 154.592C488.446 155.008 487.55 155.216 486.542 155.216C485.39 155.216 484.334 154.928 483.374 154.352C482.43 153.76 481.678 152.944 481.118 151.904C480.574 150.848 480.302 149.656 480.302 148.328C480.302 147 480.574 145.824 481.118 144.8C481.678 143.776 482.43 142.984 483.374 142.424C484.334 141.848 485.39 141.56 486.542 141.56ZM491.126 148.376C491.126 147.464 490.934 146.672 490.55 146C490.182 145.328 489.694 144.816 489.086 144.464C488.478 144.112 487.822 143.936 487.118 143.936C486.414 143.936 485.758 144.112 485.15 144.464C484.542 144.8 484.046 145.304 483.662 145.976C483.294 146.632 483.11 147.416 483.11 148.328C483.11 149.24 483.294 150.04 483.662 150.728C484.046 151.416 484.542 151.944 485.15 152.312C485.774 152.664 486.43 152.84 487.118 152.84C487.822 152.84 488.478 152.664 489.086 152.312C489.694 151.96 490.182 151.448 490.55 150.776C490.934 150.088 491.126 149.288 491.126 148.376Z" fill="#E3A400"/>
</svg>
